<svg width="100" height="90" viewBox="0 0 100 90" fill="none" xmlns="http://www.w3.org/2000/svg">
<path d="M46.0076 10C45.741 10 45.4827 10.0947 45.2953 10.2587C45.1078 10.4227 45.0037 10.6449 45.0037 10.8781V36.2533H33.603C33.1864 36.2533 32.8032 36.4427 32.5949 36.7561C32.3825 37.0658 32.3825 37.4521 32.5908 37.7618L48.9992 62.3972C49.2075 62.7069 49.5907 62.8964 50.0031 62.8964C50.4155 62.8964 50.7987 62.7069 51.007 62.3972L67.4069 37.7618C67.6152 37.452 67.6152 37.0694 67.4069 36.7561C67.2028 36.4464 66.8195 36.2533 66.4071 36.2533H54.9979V10.8781H54.9937C54.9979 10.6449 54.8896 10.4227 54.7022 10.2587C54.5147 10.0947 54.2606 10 53.994 10H46.0076Z" fill="#E5E5E5"/>
<path d="M10 51.6953V79.1254C10 79.61 10.4499 79.9999 10.9997 79.9999H89.0003C89.5543 79.9999 90 79.61 90 79.1254V51.6953C90 51.2143 89.5543 50.8208 89.0003 50.8208H80.9858C80.4359 50.8208 79.986 51.2143 79.986 51.6953V71.2628H20.0106V51.6953H20.0147C20.0147 51.2143 19.5648 50.8208 19.015 50.8208H11.0005C10.4506 50.8208 10 51.2143 10 51.6953Z" fill="#E5E5E5"/>
</svg>
